<svg width="1200" height="800" viewBox="0 0 1200 800" xmlns="http://www.w3.org/2000/svg">
  <defs>
    <linearGradient id="bg" x1="0" y1="0" x2="1" y2="1">
      <stop offset="0%" stop-color="#eff6ff"/>
      <stop offset="100%" stop-color="#ecfeff"/>
    </linearGradient>
    <linearGradient id="panel" x1="0" y1="0" x2="1" y2="1">
      <stop offset="0%" stop-color="#ffffff"/>
      <stop offset="100%" stop-color="#f8fafc"/>
    </linearGradient>
  </defs>
  <rect width="1200" height="800" fill="url(#bg)"/>
  <rect x="80" y="120" width="1040" height="560" rx="24" fill="url(#panel)" stroke="#dbeafe"/>
  <rect x="140" y="180" width="300" height="430" rx="16" fill="#ffffff" stroke="#cbd5e1"/>
  <rect x="500" y="180" width="560" height="200" rx="16" fill="#ffffff" stroke="#cbd5e1"/>
  <rect x="500" y="410" width="560" height="200" rx="16" fill="#ffffff" stroke="#cbd5e1"/>
  <rect x="170" y="220" width="240" height="12" rx="6" fill="#93c5fd"/>
  <rect x="170" y="250" width="190" height="10" rx="5" fill="#cbd5e1"/>
  <rect x="170" y="300" width="240" height="40" rx="10" fill="#dcfce7"/>
  <rect x="170" y="360" width="240" height="40" rx="10" fill="#fee2e2"/>
  <rect x="170" y="420" width="240" height="40" rx="10" fill="#dbeafe"/>
  <rect x="170" y="500" width="160" height="48" rx="12" fill="#2563eb"/>
  <circle cx="560" cy="280" r="28" fill="#dbeafe"/>
  <rect x="610" y="255" width="380" height="16" rx="8" fill="#93c5fd"/>
  <rect x="610" y="285" width="300" height="12" rx="6" fill="#cbd5e1"/>
  <rect x="610" y="470" width="410" height="14" rx="7" fill="#93c5fd"/>
  <rect x="610" y="500" width="280" height="12" rx="6" fill="#cbd5e1"/>
</svg>
